<?xml version="1.0" encoding="utf-8"?>
<!-- Generator: Adobe Illustrator 23.0.1, SVG Export Plug-In . SVG Version: 6.00 Build 0)  -->
<svg version="1.1" id="Layer_1" xmlns="http://www.w3.org/2000/svg" xmlns:xlink="http://www.w3.org/1999/xlink" x="0px" y="0px"
	 viewBox="0 0 62.5 61" style="enable-background:new 0 0 62.5 61;" xml:space="preserve">
<style type="text/css">
	.st0{fill:#E23030;}
</style>
<path id="github-icon" class="st0" d="M31.3,0C14,0,0,14,0,31.3c0,13.5,8.6,25.4,21.4,29.7c1.6,0.3,2.1-0.7,2.1-1.5v-5.8
	c-8.7,1.9-10.5-3.7-10.5-3.7c-1.4-3.6-3.5-4.6-3.5-4.6c-2.8-1.9,0.2-1.9,0.2-1.9c3.1,0.2,4.8,3.2,4.8,3.2c2.8,4.8,7.3,3.4,9.1,2.6
	c0.1-1.6,0.8-3.1,2-4.2c-6.9-0.8-14.2-3.5-14.2-15.5c0-3.1,1.1-6.1,3.2-8.4c-1-2.7-0.8-5.7,0.3-8.3c0,0,2.6-0.8,8.6,3.2
	c5.1-1.4,10.5-1.4,15.7,0c6-4,8.6-3.2,8.6-3.2c1.2,2.6,1.3,5.6,0.3,8.3c2.1,2.3,3.3,5.3,3.2,8.4c0,12-7.3,14.7-14.3,15.4
	c1.1,1,2.1,2.9,2.1,5.8v8.6c0,0.8,0.5,1.8,2.1,1.5c16.4-5.5,25.2-23.2,19.7-39.6C56.7,8.6,44.7,0,31.3,0z"/>
</svg>
